PathFileType	4	(X/Y/Z)	c:\Git\powerlifing_model_clean\simulations\HC835B\Session1\HC835B_OGR_0006\marker_experimental.trc
DataRate	CameraRate	NumFrames	NumMarkers	Units	OrigDataRate	OrigDataStartFrame	OrigNumFrames
240.000000	240.000000	4	38	mm	240.000000	137	220
Frame#	Time	RPSI			LPSI			RASI			LASI			RTH1			RTH2			RTH3			RTH4			RSK1			RSK2			RSK3			RSK4			RCAL1			RCAL2			RCAL3			RST			RPT			RTN			RFMB			RSMB			RVMB			RFMH			RSMH			RVMH			RPM			LTH1			LTH2			LTH3			LTH4			LSK1			LSK2			LSK3			LSK4			LCAL1			LCAL2			LCAL3			LFMH			LVMH			
		X1	Y1	Z1	X2	Y2	Z2	X3	Y3	Z3	X4	Y4	Z4	X5	Y5	Z5	X6	Y6	Z6	X7	Y7	Z7	X8	Y8	Z8	X9	Y9	Z9	X10	Y10	Z10	X11	Y11	Z11	X12	Y12	Z12	X13	Y13	Z13	X14	Y14	Z14	X15	Y15	Z15	X16	Y16	Z16	X17	Y17	Z17	X18	Y18	Z18	X19	Y19	Z19	X20	Y20	Z20	X21	Y21	Z21	X22	Y22	Z22	X23	Y23	Z23	X24	Y24	Z24	X25	Y25	Z25	X26	Y26	Z26	X27	Y27	Z27	X28	Y28	Z28	X29	Y29	Z29	X30	Y30	Z30	X31	Y31	Z31	X32	Y32	Z32	X33	Y33	Z33	X34	Y34	Z34	X35	Y35	Z35	X36	Y36	Z36	X37	Y37	Z37	X38	Y38	Z38	

138	0.5708333333333333	454.9248352050782	1076.785522460938	-1657.600708007813	349.6858215332032	1090.20068359375	-1658.454345703125	510.5588378906251	995.6989746093752	-1860.991455078125	257.0466613769532	1009.193237304688	-1848.566772460938	579.0416870117189	735.6894531250001	-1843.031982421875	564.0020751953126	735.2118530273439	-1902.06591796875	567.9214477539064	660.0258789062501	-1879.500854492188	543.1489868164064	658.4514160156251	-1932.845703125	547.1329345703126	539.6582031250001	-1626.384399414063	548.1098632812501	478.6849670410157	-1616.359130859375	546.5122070312501	519.9942016601564	-1571.215209960938	534.1885986328126	461.6743774414064	-1561.73583984375	495.7779846191407	571.7525634765626	-1440.040649414063	457.4389953613282	571.9750976562501	-1408.501342773438	520.7448120117189	577.4509887695314	-1398.386352539063	448.5292358398439	500.6480712890626	-1409.145263671875	546.3582763671876	518.1925048828126	-1391.644287109375	465.5314025878907	443.3134155273439	-1412.767944335938	464.4614562988282	417.4793090820314	-1386.788696289063	516.9723510742189	403.7546691894532	-1400.474243164063	552.3000488281251	481.8327941894532	-1354.330444335938	456.9938964843751	371.1400146484376	-1345.494995117188	511.364227294922	357.6451416015626	-1347.844360351563	565.2310791015626	408.593231201172	-1324.243041992188	501.1193847656251	304.5892333984376	-1330.626586914063	194.5076446533204	751.2977294921876	-1808.28173828125	188.2803649902344	751.3817749023439	-1868.799072265625	199.6481323242188	674.0976562500001	-1846.277465820313	208.5055084228516	677.2705078125001	-1907.78173828125	264.9632873535157	270.8294372558594	-1734.55322265625	266.8890075683594	234.8702697753907	-1774.924560546875	274.5134277343751	214.6520690917969	-1730.162719726563	291.8447570800782	182.6946411132813	-1774.20263671875	345.7283020019532	90.75174713134767	-1616.558959960938	313.8403320312501	54.4912567138672	-1614.441650390625	372.2094116210938	51.19177246093751	-1616.739379882813	382.5204772949219	50.05633926391603	-1843.222778320313	274.8264770507813	28.34392166137696	-1803.390869140625	
139	0.575	454.6419677734376	1078.178344726563	-1670.065307617188	349.5957031250001	1091.184326171875	-1670.9072265625	511.5982055664064	998.4311523437502	-1873.412475585938	257.6098022460938	1009.918090820313	-1860.752807617188	579.4638061523439	738.4403686523439	-1859.643310546875	564.7162475585939	738.9871215820314	-1918.726684570313	568.5342407226564	663.4588623046876	-1897.602416992188	543.9553222656251	662.9008789062501	-1951.039184570313	547.2949218750001	539.0590209960939	-1647.242309570313	547.9792480468751	477.9849243164064	-1638.147583007813	546.5297851562501	518.5965576171876	-1592.3740234375	533.8470458984376	460.2102966308595	-1583.789672851563	495.5462646484376	568.5042724609376	-1459.595092773438	457.1875610351564	568.1721191406251	-1428.135986328125	520.5236816406251	573.1861572265626	-1417.887817382813	447.799041748047	497.1766662597657	-1430.023315429688	545.8995971679689	513.7150878906251	-1412.343017578125	464.6640014648439	439.9348754882814	-1435.083862304688	463.5227966308595	413.3099060058595	-1409.861328125	516.1843872070314	399.6705932617189	-1423.982543945313	551.7045898437501	476.4454040527345	-1376.0009765625	455.459197998047	366.2857971191407	-1369.357055664063	510.4509887695314	352.2603149414063	-1372.4375	564.1810913085939	402.4045715332032	-1347.274536132813	500.006805419922	298.9112243652344	-1356.6357421875	194.5557098388672	751.4324951171876	-1817.435424804688	188.7831420898438	750.6841430664064	-1877.966430664063	199.5531921386719	673.6447753906251	-1854.258056640625	209.1343841552735	675.8509521484376	-1915.5146484375	265.0568237304688	270.9461975097657	-1736.628662109375	266.9530639648438	234.8664093017579	-1776.557861328125	274.6486816406251	214.9277801513672	-1731.709350585938	291.8182678222657	182.3001251220703	-1775.375732421875	345.7558288574219	91.44980621337892	-1616.853515625	313.9425659179688	55.18923950195314	-1614.588745117188	372.2633056640626	51.85754394531251	-1616.938354492188	382.7072448730469	50.33659744262697	-1843.494995117188	274.8775939941407	28.28781127929688	-1803.399780273438	
140	0.5791666666666666	454.4515991210939	1079.857543945313	-1682.662231445313	349.5148010253907	1092.467895507813	-1683.498291015625	512.4942016601564	1001.273010253906	-1885.870483398438	257.9336853027344	1010.738647460938	-1873.20751953125	579.7164916992189	741.5712280273439	-1876.118408203125	565.2575073242189	743.2360839843751	-1935.2529296875	569.1121215820314	667.3659667968751	-1915.508666992188	545.1422119140626	667.7050170898439	-1969.190307617188	547.3793945312501	538.4062500000001	-1667.90771484375	547.7501831054689	477.2514648437501	-1659.83154296875	546.4090576171876	517.1630859375001	-1613.344482421875	533.5461425781251	458.6273193359376	-1605.878540039063	495.2036132812501	564.8425292968751	-1478.942993164063	456.764129638672	563.8964843750001	-1447.523559570313	520.1793212890626	568.4430541992189	-1437.189331054688	447.5274353027345	492.6838989257814	-1451.595581054688	545.3823852539064	508.837860107422	-1433.164672851563	463.9725952148439	435.627655029297	-1457.85595703125	462.7066345214845	408.4719543457032	-1433.276245117188	515.3403320312501	395.2390136718751	-1447.679565429688	551.0770263671876	470.6101989746095	-1397.777954101563	454.0193786621095	360.9599914550782	-1393.343017578125	509.3711853027345	346.5161743164063	-1397.22265625	563.3479614257814	395.870330810547	-1370.9169921875	498.8069152832032	292.8939819335938	-1382.807983398438	194.6875457763672	751.7806396484376	-1826.397827148438	189.3426666259766	750.1711425781251	-1886.910888671875	199.7205963134766	673.5750732421876	-1861.953491210938	209.8930816650391	674.7368164062501	-1923.161376953125	265.1021423339844	271.1947937011719	-1738.719116210938	266.1853332519532	234.9829559326172	-1777.888793945313	274.5178222656251	215.4294738769532	-1733.22265625	291.7728576660157	182.3984832763672	-1776.673217773438	345.4843139648438	92.16564178466798	-1617.184692382813	313.7978515625001	55.84595870971681	-1614.811889648438	372.2145690917969	52.75947189331056	-1617.145874023438	382.5712280273438	50.22468566894533	-1843.616821289063	274.9041748046876	28.25145530700684	-1803.433837890625	
141	0.5833333333333334	454.4522705078126	1081.70361328125	-1695.2822265625	349.5099182128907	1094.075561523438	-1696.197631835938	513.3333129882814	1004.040466308594	-1898.081298828125	258.1865234375001	1011.59375	-1886.109130859375	580.0269775390626	745.0703735351564	-1892.447998046875	565.8468017578126	747.8411254882814	-1951.61767578125	569.6531982421876	671.6356201171876	-1933.277954101563	545.7105102539064	672.9846801757814	-1986.931396484375	547.3272094726564	537.7326660156251	-1688.361328125	547.5093994140626	476.4615173339845	-1681.401977539063	546.1983032226564	515.5595703125001	-1634.19482421875	533.3206787109376	457.0256347656251	-1627.774047851563	494.6138305664064	560.7311401367189	-1498.16064453125	456.5321655273439	559.3903808593751	-1466.963989257813	519.6516723632814	563.2143554687501	-1456.30859375	446.5658264160157	488.7011108398439	-1472.268310546875	544.8754882812501	503.5365600585939	-1453.92236328125	463.2105407714845	431.2570190429689	-1480.493041992188	461.873748779297	403.3819580078126	-1456.743530273438	514.4739379882814	390.4880676269532	-1471.491088867188	550.4042968750001	464.3870849609376	-1419.580810546875	452.6524047851564	355.1757507324219	-1417.563720703125	508.3580017089845	340.4724731445313	-1422.38916015625	562.4548339843751	388.8911437988282	-1394.728881835938	497.5320129394532	286.3870544433594	-1409.395385742188	194.9414062500001	752.3594360351564	-1835.200927734375	189.9280395507813	749.8399047851564	-1895.749755859375	199.9970397949219	673.5967407226564	-1869.57470703125	210.7410125732422	673.8419799804689	-1930.6240234375	264.8043212890626	271.8132324218751	-1740.699096679688	266.6901855468751	235.0878601074219	-1779.935546875	274.3363037109376	215.9498291015626	-1734.675903320313	291.5084838867188	182.6485443115235	-1777.736938476563	344.9872131347657	93.02134704589845	-1617.588745117188	313.5665893554688	56.5890579223633	-1615.020751953125	371.9778137207032	53.810848236084	-1617.394653320313	382.4165954589844	50.27161407470705	-1843.780151367188	274.8253173828126	28.19071006774903	-1803.501831054688	
